<?xml version="1.0" encoding="UTF-8" ?>
<!DOCTYPE svg PUBLIC "-//W3C//DTD SVG 1.1//EN" "http://www.w3.org/Graphics/SVG/1.1/DTD/svg11.dtd">
<svg width="430pt" height="168pt" viewBox="0 0 430 168" version="1.1" xmlns="http://www.w3.org/2000/svg">
<g id="#36362bff">
<path fill="#36362b" opacity="1.00" d=" M 0.00 0.00 L 430.00 0.00 L 430.00 168.00 L 0.00 168.00 L 0.00 0.00 M 337.82 58.04 C 337.65 59.59 337.58 61.14 337.66 62.70 C 338.22 62.48 339.34 62.05 339.91 61.83 C 341.31 60.05 338.64 59.21 337.82 58.04 M 334.35 64.95 L 332.49 63.29 C 330.77 69.90 324.76 74.42 323.51 81.21 C 322.13 86.83 323.33 93.27 327.68 97.31 C 333.69 103.49 344.95 103.19 350.42 96.42 C 355.02 91.58 355.01 84.21 352.95 78.23 C 352.81 83.12 353.31 88.73 349.71 92.63 C 344.49 99.26 333.44 99.58 328.00 93.06 C 323.71 88.68 324.00 82.03 325.45 76.52 C 326.04 81.04 325.58 86.32 329.22 89.73 C 334.06 95.40 343.75 95.19 348.41 89.41 C 352.41 85.01 351.41 78.63 351.22 73.20 C 349.70 77.85 350.29 83.72 346.12 87.10 C 341.46 91.43 333.35 90.48 329.66 85.36 C 326.95 81.89 327.12 77.22 327.95 73.13 C 328.93 76.51 328.98 80.64 331.80 83.19 C 335.71 87.14 342.89 86.71 346.33 82.35 C 349.47 78.59 348.43 73.31 348.09 68.86 C 347.44 71.68 347.18 74.60 346.22 77.34 C 344.38 81.48 338.76 83.34 334.80 81.14 C 330.66 78.98 329.16 73.55 330.52 69.28 C 331.73 71.71 332.08 74.90 334.40 76.65 C 337.08 78.89 341.51 78.48 343.78 75.87 C 345.65 73.40 346.32 70.30 347.44 67.47 C 343.61 68.59 343.36 74.27 338.98 74.18 C 335.03 74.66 333.20 70.55 332.34 67.43 C 332.93 66.76 333.52 66.09 334.10 65.42 C 334.80 67.71 336.09 70.57 339.00 70.29 C 342.75 70.06 343.78 65.45 342.73 62.46 C 341.26 63.93 340.15 65.98 338.05 66.65 C 336.47 65.40 335.91 63.40 335.08 61.66 C 334.84 62.75 334.59 63.85 334.35 64.95 M 72.77 65.43 C 71.90 74.91 72.61 84.45 72.35 93.96 C 72.62 96.14 71.50 100.37 75.10 99.53 C 76.01 89.23 75.25 78.85 75.50 68.51 C 80.94 68.53 86.64 67.83 91.70 70.33 C 92.51 72.18 93.59 73.99 93.78 76.05 C 93.77 78.39 92.53 80.46 91.57 82.52 C 93.79 85.86 94.87 90.60 91.89 93.86 C 88.73 97.70 83.29 95.84 79.06 96.94 C 78.99 97.51 78.86 98.64 78.79 99.21 C 84.11 100.15 90.85 100.21 94.52 95.52 C 97.56 91.81 97.38 86.51 95.21 82.43 C 98.53 76.68 96.64 68.34 90.03 66.01 C 84.40 64.67 78.51 65.63 72.77 65.43 M 110.86 69.84 C 108.28 76.56 105.51 83.21 102.82 89.89 C 101.56 93.10 99.76 96.35 100.33 99.93 C 101.75 99.12 103.17 98.15 103.63 96.48 C 107.15 87.73 110.47 78.90 114.13 70.21 C 118.12 79.85 121.41 89.84 126.01 99.20 C 126.52 99.11 127.56 98.92 128.08 98.82 C 127.98 96.66 127.18 94.63 126.38 92.65 C 123.30 85.05 120.22 77.45 117.28 69.79 C 116.49 67.80 115.59 65.83 114.28 64.12 C 112.51 65.59 111.67 67.76 110.86 69.84 M 197.31 65.54 C 196.69 76.04 197.06 86.58 197.06 97.09 C 196.72 99.04 198.58 99.39 200.03 99.56 C 200.22 89.20 200.10 78.84 200.11 68.48 C 204.08 68.56 208.08 68.25 212.04 68.72 C 215.68 69.09 218.31 72.56 218.37 76.10 C 218.65 78.45 217.09 80.43 216.13 82.43 C 218.40 85.69 219.48 90.32 216.72 93.66 C 213.44 97.70 207.70 96.11 203.18 96.79 C 203.32 97.48 203.60 98.85 203.74 99.53 C 208.71 99.62 214.68 100.48 218.41 96.37 C 222.17 92.67 221.99 86.92 219.96 82.40 C 222.49 77.35 221.95 70.40 216.89 67.16 C 210.93 63.90 203.78 65.80 197.31 65.54 M 132.85 69.97 C 132.85 79.64 132.94 89.32 132.82 98.99 C 133.45 99.10 134.72 99.32 135.35 99.42 C 136.28 96.72 135.98 93.81 136.03 91.00 C 135.89 83.30 136.16 75.58 135.93 67.88 C 135.98 66.52 135.31 65.63 133.92 65.20 C 132.87 66.56 132.92 68.35 132.85 69.97 M 138.49 66.87 C 142.70 74.35 148.15 81.09 152.99 88.19 C 153.50 87.91 154.50 87.35 155.01 87.07 C 154.91 79.83 155.21 72.58 154.80 65.34 C 154.15 65.57 152.84 66.04 152.19 66.27 C 151.50 71.26 152.00 76.32 151.90 81.34 C 147.91 75.99 144.58 70.10 140.08 65.15 C 139.68 65.58 138.88 66.44 138.49 66.87 M 158.13 78.95 C 158.27 85.58 157.82 92.24 158.34 98.85 C 159.04 99.03 160.43 99.39 161.13 99.57 C 161.38 91.39 161.17 83.20 161.27 75.02 C 161.24 71.91 161.47 68.75 160.77 65.70 C 160.23 65.67 159.14 65.61 158.60 65.58 C 157.69 69.98 158.26 74.50 158.13 78.95 M 169.09 66.09 C 168.35 71.01 168.90 76.03 168.76 80.99 C 168.92 86.95 168.38 92.94 169.02 98.87 C 171.84 101.40 171.88 96.89 171.90 95.01 C 171.67 85.42 172.26 75.78 171.60 66.22 C 171.24 66.03 170.54 65.65 170.19 65.46 L 169.09 66.09 M 175.24 66.00 C 174.49 70.39 174.74 74.92 175.62 79.27 C 178.86 77.26 180.66 73.80 182.86 70.82 C 183.82 69.30 185.18 67.80 184.98 65.87 C 181.31 64.83 180.23 70.03 178.17 72.15 C 178.00 69.87 178.09 67.53 177.31 65.36 C 176.80 65.52 175.76 65.84 175.24 66.00 M 178.55 82.55 C 182.68 88.56 186.68 94.69 191.27 100.38 C 191.59 99.75 192.23 98.51 192.54 97.88 C 189.68 92.43 185.69 87.67 182.21 82.61 C 185.39 77.33 189.65 72.73 192.45 67.24 C 192.16 66.63 191.59 65.40 191.31 64.79 C 186.56 70.33 182.60 76.49 178.55 82.55 M 227.57 65.80 C 227.56 77.17 227.22 88.56 227.77 99.92 C 229.30 99.59 230.82 98.90 230.56 97.05 C 230.76 87.58 230.54 78.11 230.63 68.64 C 235.25 68.89 240.13 67.82 244.56 69.51 C 249.81 71.50 250.12 79.67 245.58 82.58 C 243.59 83.72 241.35 84.29 239.28 85.22 C 242.77 90.31 245.95 95.68 250.15 100.24 C 250.42 99.63 250.95 98.40 251.22 97.79 C 249.39 93.85 246.44 90.56 244.08 86.93 C 247.41 85.43 250.67 83.00 251.50 79.22 C 253.33 73.39 249.16 66.52 243.03 65.75 C 237.90 65.23 232.71 65.43 227.57 65.80 M 256.36 75.01 C 256.55 83.33 256.01 91.66 256.71 99.96 C 260.31 99.51 259.38 95.62 259.53 93.04 C 259.22 83.90 260.02 74.71 259.11 65.61 C 258.57 65.62 257.48 65.65 256.93 65.66 C 255.96 68.68 256.46 71.90 256.36 75.01 M 262.76 65.42 C 262.62 76.26 262.40 87.14 262.82 97.97 C 263.17 101.21 266.00 99.32 265.71 97.11 C 265.71 86.84 265.97 76.54 265.57 66.28 C 264.87 66.07 263.46 65.63 262.76 65.42 M 270.59 66.03 C 270.60 66.59 270.63 67.70 270.65 68.26 C 275.06 68.98 279.55 68.51 284.00 68.63 C 287.70 68.54 291.50 69.02 295.12 68.03 C 295.03 67.50 294.83 66.42 294.74 65.88 C 290.54 65.16 286.25 65.60 282.01 65.49 C 278.20 65.57 274.33 65.14 270.59 66.03 M 300.22 99.30 C 306.60 99.58 313.00 99.69 319.37 99.21 C 319.15 98.54 318.71 97.18 318.49 96.51 C 313.41 96.50 308.32 96.51 303.24 96.49 C 303.25 87.21 303.24 77.92 303.24 68.64 C 308.63 68.56 314.06 68.90 319.42 68.18 C 319.16 67.51 318.65 66.15 318.39 65.48 C 312.40 65.54 306.41 65.46 300.42 65.54 C 299.83 76.78 300.18 88.05 300.22 99.30 M 79.15 71.94 C 79.01 72.50 78.72 73.62 78.58 74.18 C 81.32 74.85 84.17 74.65 86.93 75.18 C 88.29 78.68 82.35 77.04 82.15 80.10 C 85.57 82.76 91.63 79.47 90.13 75.07 C 88.84 70.40 82.80 71.51 79.15 71.94 M 203.14 74.17 C 205.99 74.87 208.93 74.78 211.84 74.94 C 211.62 75.94 211.40 76.95 211.17 77.96 C 210.23 77.91 208.34 77.82 207.39 77.78 C 207.32 78.85 206.75 80.34 208.04 80.94 C 210.38 81.22 213.58 81.01 214.44 78.33 C 216.17 75.31 213.46 71.28 210.03 71.61 C 207.60 71.81 203.22 70.54 203.14 74.17 M 233.47 71.83 C 233.79 76.40 238.98 74.09 241.93 75.14 C 243.48 78.17 238.87 77.70 237.25 78.93 C 238.12 82.48 242.44 80.52 244.69 79.59 C 245.25 77.22 245.76 74.26 243.57 72.52 C 240.44 70.98 236.81 71.76 233.47 71.83 M 269.97 74.30 C 272.67 74.67 275.40 74.77 278.12 74.84 C 278.27 82.82 277.84 90.82 278.31 98.78 C 279.02 98.98 280.42 99.39 281.13 99.59 C 281.15 90.44 281.65 81.23 280.91 72.11 C 277.34 72.01 271.64 69.97 269.97 74.30 M 284.65 71.81 C 283.94 77.50 284.34 83.25 284.24 88.98 C 284.30 92.44 283.92 95.98 284.77 99.39 C 285.36 99.37 286.54 99.34 287.13 99.33 C 287.72 91.18 287.20 82.99 287.39 74.83 C 290.22 74.37 294.88 76.14 295.56 72.07 C 291.93 71.67 288.29 71.72 284.65 71.81 M 306.15 80.33 C 309.24 81.06 312.49 81.33 315.64 80.77 C 315.84 80.07 316.25 78.68 316.45 77.99 C 314.10 77.91 311.76 77.87 309.41 77.84 C 309.40 77.07 309.38 75.54 309.37 74.77 C 312.63 74.64 316.05 75.22 319.20 74.13 C 319.13 73.63 318.99 72.63 318.92 72.13 C 314.84 71.39 310.66 71.81 306.54 71.84 C 306.29 74.66 306.21 77.50 306.15 80.33 M 140.40 76.94 C 140.13 77.22 139.59 77.79 139.32 78.08 C 138.97 84.96 138.98 91.90 139.33 98.78 C 140.00 98.98 141.35 99.38 142.02 99.59 C 142.19 94.21 142.12 88.84 142.13 83.47 C 146.08 89.17 149.82 95.04 154.28 100.37 C 154.60 99.75 155.22 98.50 155.53 97.88 C 152.84 92.67 148.87 88.26 145.75 83.31 C 144.09 81.11 142.88 78.35 140.40 76.94 M 112.51 81.37 C 112.83 83.15 113.20 84.94 113.64 86.70 C 111.74 87.14 110.16 88.07 110.21 90.22 C 112.90 90.25 115.58 90.15 118.25 89.82 C 116.99 86.68 116.68 81.88 112.51 81.37 M 77.71 86.19 C 80.95 87.04 84.34 86.99 87.59 87.83 C 87.15 90.67 83.74 90.21 81.73 91.21 C 83.74 95.87 91.17 92.51 90.40 88.00 C 88.98 82.77 80.94 82.83 77.71 86.19 M 203.11 84.69 C 203.49 89.80 211.02 84.59 212.40 89.37 C 210.51 89.93 208.58 90.36 206.74 91.08 C 206.96 94.61 211.34 93.57 213.30 92.21 C 216.08 90.16 215.08 85.41 211.89 84.37 C 208.99 83.84 205.96 83.94 203.11 84.69 M 306.41 84.31 C 306.28 87.10 306.03 89.93 306.50 92.71 C 309.84 93.85 313.48 93.42 316.95 93.30 C 318.45 93.24 319.33 92.41 319.59 90.82 C 316.23 89.93 312.72 90.28 309.29 90.20 C 309.32 89.46 309.40 87.98 309.44 87.23 C 311.60 87.15 313.78 87.15 315.94 86.80 C 315.90 86.19 315.82 84.96 315.79 84.35 C 312.68 83.90 309.53 84.14 306.41 84.31 M 174.96 86.92 C 175.19 91.05 173.93 95.61 175.82 99.45 C 179.09 99.91 177.55 94.81 178.24 92.87 C 180.24 95.05 181.36 100.27 185.10 99.11 C 184.01 94.07 179.75 90.51 177.12 86.24 C 176.40 86.45 175.67 86.68 174.96 86.92 M 234.44 85.51 C 233.91 90.21 232.50 95.71 235.00 100.00 C 237.73 98.60 236.41 95.15 236.83 92.74 C 238.59 95.36 240.44 97.94 242.60 100.25 C 242.85 99.15 244.28 98.00 243.32 96.87 C 240.86 92.75 238.23 88.55 234.44 85.51 M 108.39 93.58 C 106.92 95.32 106.96 97.74 106.68 99.87 C 108.18 98.91 109.56 97.79 110.82 96.53 C 113.00 96.50 115.19 96.49 117.37 96.49 C 118.50 97.71 119.40 99.66 121.43 99.03 C 121.35 97.05 120.60 95.22 119.92 93.40 C 116.08 93.43 112.21 93.12 108.39 93.58 Z" />
</g>
<g id="#5e917cff">
<path fill="#5e917c" opacity="1.00" d=" M 337.82 58.04 C 338.64 59.21 341.31 60.05 339.91 61.83 C 339.34 62.05 338.22 62.48 337.66 62.70 C 337.58 61.14 337.65 59.59 337.82 58.04 Z" />
<path fill="#5e917c" opacity="1.00" d=" M 334.35 64.95 C 334.59 63.85 334.84 62.75 335.08 61.66 C 335.91 63.40 336.47 65.40 338.05 66.65 C 340.15 65.98 341.26 63.93 342.73 62.46 C 343.78 65.45 342.75 70.06 339.00 70.29 C 336.09 70.57 334.80 67.71 334.10 65.42 C 333.52 66.09 332.93 66.76 332.34 67.43 C 333.20 70.55 335.03 74.66 338.98 74.18 C 343.36 74.27 343.61 68.59 347.44 67.47 C 346.32 70.30 345.65 73.40 343.78 75.87 C 341.51 78.48 337.08 78.89 334.40 76.65 C 332.08 74.90 331.73 71.71 330.52 69.28 C 329.16 73.55 330.66 78.98 334.80 81.14 C 338.76 83.34 344.38 81.48 346.22 77.34 C 347.18 74.60 347.44 71.68 348.09 68.86 C 348.43 73.31 349.47 78.59 346.33 82.35 C 342.89 86.71 335.71 87.14 331.80 83.19 C 328.98 80.64 328.93 76.51 327.95 73.13 C 327.12 77.22 326.95 81.89 329.66 85.36 C 333.35 90.48 341.46 91.43 346.12 87.10 C 350.29 83.72 349.70 77.85 351.22 73.20 C 351.41 78.63 352.41 85.01 348.41 89.41 C 343.75 95.19 334.06 95.40 329.22 89.73 C 325.58 86.32 326.04 81.04 325.45 76.52 C 324.00 82.03 323.71 88.68 328.00 93.06 C 333.44 99.58 344.49 99.26 349.71 92.63 C 353.31 88.73 352.81 83.12 352.95 78.23 C 355.01 84.21 355.02 91.58 350.42 96.42 C 344.95 103.19 333.69 103.49 327.68 97.31 C 323.33 93.27 322.13 86.83 323.51 81.21 C 324.76 74.42 330.77 69.90 332.49 63.29 L 334.35 64.95 Z" />
</g>
<g id="#e5d3a8ff">
<path fill="#e5d3a8" opacity="1.00" d=" M 72.77 65.43 C 78.51 65.63 84.40 64.67 90.03 66.01 C 96.64 68.34 98.53 76.68 95.21 82.43 C 97.38 86.51 97.56 91.81 94.52 95.52 C 90.85 100.21 84.11 100.15 78.79 99.21 C 78.86 98.64 78.99 97.51 79.06 96.94 C 83.29 95.84 88.73 97.70 91.89 93.86 C 94.87 90.60 93.79 85.86 91.57 82.52 C 92.53 80.46 93.77 78.39 93.78 76.05 C 93.59 73.99 92.51 72.18 91.70 70.33 C 86.64 67.83 80.94 68.53 75.50 68.51 C 75.25 78.85 76.01 89.23 75.10 99.53 C 71.50 100.37 72.62 96.14 72.35 93.96 C 72.61 84.45 71.90 74.91 72.77 65.43 Z" />
<path fill="#e5d3a8" opacity="1.00" d=" M 110.86 69.84 C 111.67 67.76 112.51 65.59 114.28 64.12 C 115.59 65.83 116.49 67.80 117.28 69.79 C 120.22 77.45 123.30 85.05 126.38 92.65 C 127.18 94.63 127.98 96.66 128.08 98.82 C 127.56 98.92 126.52 99.11 126.01 99.20 C 121.41 89.84 118.12 79.85 114.13 70.21 C 110.47 78.90 107.15 87.73 103.63 96.48 C 103.17 98.15 101.75 99.12 100.33 99.93 C 99.76 96.35 101.56 93.10 102.82 89.89 C 105.51 83.21 108.28 76.56 110.86 69.84 Z" />
<path fill="#e5d3a8" opacity="1.00" d=" M 197.31 65.54 C 203.78 65.80 210.93 63.90 216.89 67.16 C 221.95 70.40 222.49 77.35 219.96 82.40 C 221.99 86.92 222.17 92.67 218.41 96.37 C 214.68 100.48 208.71 99.62 203.74 99.53 C 203.60 98.85 203.32 97.48 203.18 96.79 C 207.70 96.11 213.44 97.70 216.72 93.66 C 219.48 90.32 218.40 85.69 216.13 82.43 C 217.09 80.43 218.65 78.45 218.37 76.10 C 218.31 72.56 215.68 69.09 212.04 68.72 C 208.08 68.25 204.08 68.56 200.11 68.48 C 200.10 78.84 200.22 89.20 200.03 99.56 C 198.58 99.39 196.72 99.04 197.06 97.09 C 197.06 86.58 196.69 76.04 197.31 65.54 Z" />
<path fill="#e5d3a8" opacity="1.00" d=" M 132.85 69.97 C 132.92 68.35 132.87 66.56 133.92 65.20 C 135.31 65.63 135.98 66.52 135.93 67.88 C 136.16 75.58 135.89 83.30 136.03 91.00 C 135.98 93.81 136.28 96.72 135.35 99.42 C 134.72 99.32 133.45 99.10 132.82 98.99 C 132.94 89.32 132.85 79.64 132.85 69.97 Z" />
<path fill="#e5d3a8" opacity="1.00" d=" M 138.49 66.87 C 138.88 66.44 139.68 65.58 140.08 65.15 C 144.58 70.10 147.91 75.99 151.90 81.34 C 152.00 76.32 151.50 71.26 152.19 66.27 C 152.84 66.04 154.15 65.57 154.80 65.34 C 155.21 72.58 154.91 79.83 155.01 87.07 C 154.50 87.35 153.50 87.91 152.99 88.19 C 148.15 81.09 142.70 74.35 138.49 66.87 Z" />
<path fill="#e5d3a8" opacity="1.00" d=" M 158.13 78.95 C 158.26 74.50 157.69 69.98 158.60 65.58 C 159.14 65.61 160.23 65.67 160.77 65.70 C 161.47 68.75 161.24 71.91 161.27 75.02 C 161.17 83.20 161.38 91.39 161.13 99.57 C 160.43 99.39 159.04 99.03 158.34 98.85 C 157.82 92.24 158.27 85.58 158.13 78.95 Z" />
<path fill="#e5d3a8" opacity="1.00" d=" M 169.09 66.09 L 170.19 65.46 C 170.54 65.65 171.24 66.03 171.60 66.22 C 172.26 75.78 171.67 85.42 171.90 95.01 C 171.88 96.89 171.84 101.40 169.02 98.87 C 168.38 92.94 168.92 86.95 168.76 80.99 C 168.90 76.03 168.35 71.01 169.09 66.09 Z" />
<path fill="#e5d3a8" opacity="1.00" d=" M 175.24 66.00 C 175.76 65.84 176.80 65.52 177.31 65.36 C 178.09 67.53 178.00 69.87 178.17 72.15 C 180.23 70.03 181.31 64.83 184.98 65.87 C 185.18 67.80 183.82 69.30 182.86 70.82 C 180.66 73.80 178.86 77.26 175.62 79.27 C 174.74 74.92 174.49 70.39 175.24 66.00 Z" />
<path fill="#e5d3a8" opacity="1.00" d=" M 178.55 82.55 C 182.60 76.49 186.56 70.33 191.31 64.79 C 191.59 65.40 192.16 66.63 192.45 67.24 C 189.65 72.73 185.39 77.33 182.21 82.61 C 185.69 87.67 189.68 92.43 192.54 97.88 C 192.23 98.51 191.59 99.75 191.27 100.38 C 186.68 94.69 182.68 88.56 178.55 82.55 Z" />
<path fill="#e5d3a8" opacity="1.00" d=" M 227.57 65.80 C 232.71 65.43 237.90 65.23 243.03 65.75 C 249.16 66.52 253.33 73.39 251.50 79.22 C 250.67 83.00 247.41 85.43 244.08 86.93 C 246.44 90.56 249.39 93.85 251.22 97.79 C 250.95 98.40 250.42 99.63 250.15 100.24 C 245.95 95.68 242.77 90.31 239.28 85.22 C 241.35 84.29 243.59 83.72 245.58 82.58 C 250.12 79.67 249.81 71.50 244.56 69.51 C 240.13 67.82 235.25 68.89 230.63 68.64 C 230.54 78.11 230.76 87.58 230.56 97.05 C 230.82 98.90 229.30 99.59 227.77 99.92 C 227.22 88.56 227.56 77.17 227.57 65.80 Z" />
<path fill="#e5d3a8" opacity="1.00" d=" M 256.36 75.01 C 256.46 71.90 255.96 68.68 256.93 65.66 C 257.48 65.65 258.57 65.62 259.11 65.61 C 260.02 74.71 259.22 83.90 259.53 93.04 C 259.38 95.62 260.31 99.51 256.71 99.96 C 256.01 91.66 256.55 83.33 256.36 75.01 Z" />
<path fill="#e5d3a8" opacity="1.00" d=" M 262.76 65.42 C 263.46 65.63 264.87 66.07 265.57 66.28 C 265.97 76.54 265.71 86.84 265.71 97.11 C 266.00 99.32 263.17 101.21 262.82 97.97 C 262.40 87.14 262.62 76.26 262.76 65.42 Z" />
<path fill="#e5d3a8" opacity="1.00" d=" M 270.59 66.03 C 274.33 65.14 278.20 65.57 282.01 65.49 C 286.25 65.60 290.54 65.16 294.74 65.88 C 294.83 66.42 295.03 67.50 295.12 68.03 C 291.50 69.02 287.70 68.54 284.00 68.63 C 279.55 68.51 275.06 68.98 270.65 68.26 C 270.63 67.70 270.60 66.59 270.59 66.03 Z" />
<path fill="#e5d3a8" opacity="1.00" d=" M 300.22 99.30 C 300.18 88.05 299.83 76.78 300.42 65.54 C 306.41 65.46 312.40 65.54 318.39 65.48 C 318.65 66.15 319.16 67.51 319.42 68.18 C 314.06 68.90 308.63 68.56 303.24 68.64 C 303.24 77.92 303.25 87.21 303.24 96.49 C 308.32 96.51 313.41 96.50 318.49 96.51 C 318.71 97.18 319.15 98.54 319.37 99.21 C 313.00 99.69 306.60 99.58 300.22 99.30 Z" />
<path fill="#e5d3a8" opacity="1.00" d=" M 79.15 71.94 C 82.80 71.51 88.84 70.40 90.13 75.07 C 91.63 79.47 85.57 82.76 82.15 80.10 C 82.35 77.04 88.29 78.68 86.93 75.18 C 84.17 74.65 81.32 74.85 78.58 74.18 C 78.72 73.62 79.01 72.50 79.15 71.94 Z" />
<path fill="#e5d3a8" opacity="1.00" d=" M 203.14 74.17 C 203.22 70.54 207.60 71.81 210.03 71.61 C 213.46 71.28 216.17 75.31 214.44 78.33 C 213.58 81.01 210.38 81.22 208.04 80.94 C 206.75 80.34 207.32 78.85 207.39 77.78 C 208.34 77.82 210.23 77.91 211.17 77.96 C 211.40 76.95 211.62 75.94 211.84 74.94 C 208.93 74.78 205.99 74.87 203.14 74.17 Z" />
<path fill="#e5d3a8" opacity="1.00" d=" M 233.47 71.83 C 236.81 71.76 240.44 70.98 243.57 72.52 C 245.76 74.26 245.25 77.22 244.69 79.59 C 242.44 80.52 238.12 82.48 237.25 78.93 C 238.87 77.70 243.48 78.17 241.93 75.14 C 238.98 74.09 233.79 76.40 233.47 71.83 Z" />
<path fill="#e5d3a8" opacity="1.00" d=" M 269.97 74.30 C 271.64 69.97 277.34 72.01 280.91 72.11 C 281.65 81.23 281.15 90.44 281.13 99.59 C 280.42 99.39 279.02 98.98 278.31 98.78 C 277.84 90.82 278.27 82.82 278.12 74.84 C 275.40 74.77 272.67 74.67 269.97 74.30 Z" />
<path fill="#e5d3a8" opacity="1.00" d=" M 284.65 71.81 C 288.29 71.72 291.93 71.67 295.56 72.07 C 294.88 76.14 290.22 74.37 287.39 74.83 C 287.20 82.99 287.72 91.18 287.13 99.33 C 286.54 99.34 285.36 99.37 284.77 99.39 C 283.92 95.98 284.30 92.44 284.24 88.98 C 284.34 83.25 283.94 77.50 284.65 71.81 Z" />
<path fill="#e5d3a8" opacity="1.00" d=" M 306.15 80.33 C 306.21 77.50 306.29 74.66 306.54 71.84 C 310.66 71.81 314.84 71.39 318.92 72.13 C 318.99 72.63 319.13 73.63 319.20 74.13 C 316.05 75.22 312.63 74.64 309.37 74.77 C 309.38 75.54 309.40 77.07 309.41 77.84 C 311.76 77.87 314.10 77.91 316.45 77.99 C 316.25 78.68 315.84 80.07 315.64 80.77 C 312.49 81.33 309.24 81.06 306.15 80.33 Z" />
<path fill="#e5d3a8" opacity="1.00" d=" M 140.40 76.94 C 142.88 78.35 144.09 81.11 145.75 83.31 C 148.87 88.26 152.84 92.67 155.53 97.88 C 155.22 98.50 154.60 99.75 154.28 100.37 C 149.82 95.04 146.08 89.17 142.13 83.47 C 142.12 88.84 142.19 94.21 142.02 99.59 C 141.35 99.38 140.00 98.98 139.33 98.78 C 138.98 91.90 138.97 84.96 139.32 78.08 C 139.59 77.79 140.13 77.22 140.40 76.94 Z" />
<path fill="#e5d3a8" opacity="1.00" d=" M 112.51 81.37 C 116.68 81.88 116.99 86.68 118.25 89.82 C 115.58 90.15 112.90 90.25 110.21 90.22 C 110.16 88.07 111.74 87.14 113.64 86.70 C 113.20 84.94 112.83 83.15 112.51 81.37 Z" />
<path fill="#e5d3a8" opacity="1.00" d=" M 77.71 86.19 C 80.94 82.83 88.98 82.77 90.40 88.00 C 91.17 92.51 83.74 95.87 81.73 91.21 C 83.74 90.21 87.15 90.67 87.59 87.83 C 84.34 86.99 80.95 87.04 77.71 86.19 Z" />
<path fill="#e5d3a8" opacity="1.00" d=" M 203.11 84.69 C 205.96 83.94 208.99 83.84 211.89 84.37 C 215.08 85.41 216.08 90.16 213.30 92.21 C 211.34 93.57 206.96 94.61 206.74 91.08 C 208.58 90.36 210.51 89.93 212.40 89.37 C 211.02 84.59 203.49 89.80 203.11 84.69 Z" />
<path fill="#e5d3a8" opacity="1.00" d=" M 306.41 84.31 C 309.53 84.14 312.68 83.90 315.79 84.35 C 315.82 84.96 315.90 86.19 315.94 86.80 C 313.78 87.15 311.60 87.15 309.44 87.23 C 309.40 87.98 309.32 89.46 309.29 90.20 C 312.72 90.28 316.23 89.93 319.59 90.82 C 319.33 92.41 318.45 93.24 316.95 93.30 C 313.48 93.42 309.84 93.85 306.50 92.71 C 306.03 89.93 306.28 87.10 306.41 84.31 Z" />
<path fill="#e5d3a8" opacity="1.00" d=" M 174.96 86.92 C 175.67 86.68 176.40 86.45 177.12 86.24 C 179.75 90.51 184.01 94.07 185.10 99.11 C 181.36 100.27 180.24 95.05 178.24 92.87 C 177.55 94.81 179.09 99.91 175.82 99.45 C 173.93 95.61 175.19 91.05 174.96 86.92 Z" />
<path fill="#e5d3a8" opacity="1.00" d=" M 234.44 85.51 C 238.23 88.55 240.86 92.75 243.32 96.87 C 244.28 98.00 242.85 99.15 242.60 100.25 C 240.44 97.94 238.59 95.36 236.83 92.74 C 236.41 95.15 237.73 98.60 235.00 100.00 C 232.50 95.71 233.91 90.21 234.44 85.51 Z" />
<path fill="#e5d3a8" opacity="1.00" d=" M 108.39 93.58 C 112.21 93.12 116.08 93.43 119.92 93.40 C 120.60 95.22 121.35 97.05 121.43 99.03 C 119.40 99.66 118.50 97.71 117.37 96.49 C 115.19 96.49 113.00 96.50 110.82 96.53 C 109.56 97.79 108.18 98.91 106.68 99.87 C 106.96 97.74 106.92 95.32 108.39 93.58 Z" />
</g>
</svg>
